<svg width="29" height="29" viewBox="0 0 29 29" fill="none" xmlns="http://www.w3.org/2000/svg">
<path d="M15 2C18.5898 2 21.8398 3.45507 24.1924 5.80756C26.5449 8.16019 28 11.4102 28 15C28 18.5898 26.5449 21.8399 24.1924 24.1924C21.8398 26.5449 18.5898 28 15 28C11.4102 28 8.16009 26.5449 5.80756 24.1924C3.45507 21.8399 2 18.5898 2 15C2 11.4102 3.45507 8.16019 5.80756 5.80756C8.16009 3.45507 11.4102 2 15 2Z" fill="#70CB45"/>
<path d="M21.9966 15.633C22.0001 15.4824 21.9075 15.3438 21.7672 15.3052C20.7741 15.0312 19.7913 14.9247 18.8537 14.9751C17.2683 15.0602 15.8147 15.595 14.6579 16.5265C13.4938 17.4637 12.6315 18.7986 12.237 20.4777C12.0504 21.2718 11.9691 22.1441 12.0106 23.0884C12.0094 23.2371 12.102 23.373 12.241 23.4107C12.687 23.5322 13.1676 23.5746 13.6678 23.548C15.3051 23.4605 17.1631 22.6235 18.7025 21.4005C20.2501 20.171 21.4874 18.5424 21.8734 16.879C21.9694 16.4653 22.0132 16.0483 21.9966 15.633Z" fill="#184602"/>
<path d="M13.0289 22.0464C12.9573 22.1993 13.0234 22.3812 13.1765 22.4526C13.3295 22.5241 13.5116 22.4581 13.5832 22.3053C14.045 21.321 14.8373 20.3592 15.9416 19.5365C16.9613 18.7768 18.2439 18.1382 19.7752 17.7117C19.9383 17.6668 20.0339 17.4983 19.9889 17.3355C19.9438 17.1726 19.7751 17.0772 19.612 17.1222C18.0012 17.5709 16.6502 18.2439 15.5745 19.0452C14.3888 19.9286 13.5333 20.9716 13.0289 22.0464Z" fill="#70CB45"/>
<path d="M12.5317 15.3593C12.5939 15.5165 12.7328 15.5905 12.8599 15.5445C13.3546 16.3339 14.7505 17.9631 17.2642 16.5617C17.297 16.6794 17.3759 16.7725 17.4781 16.7977C17.6318 16.8356 17.7806 16.7057 17.81 16.5075C18.1091 14.5303 18.0569 12.3155 17.6405 10.4273C17.2557 8.68295 16.5583 7.2063 15.5364 6.42208C15.4221 6.33398 15.2787 6.36199 15.1891 6.47911C13.8926 7.98907 12.9007 9.32103 12.3888 10.7072C11.8563 12.149 11.8402 13.6229 12.5317 15.3593Z" fill="#184602"/>
<path d="M11.9207 21.3783C12.0498 21.4513 12.2027 21.3822 12.2622 21.2238C12.32 21.0701 12.2684 20.8886 12.1473 20.8113C12.4727 18.7184 13.9495 17.4904 14.5446 17.073C14.6315 17.2012 14.7862 17.2249 14.8965 17.1238C15.0104 17.0194 15.0339 16.8212 14.9489 16.6812C14.7273 16.3174 14.4853 15.9642 14.2276 15.6281C13.9722 15.2954 13.7027 14.9818 13.4234 14.6941C12.7625 14.0127 12.0418 13.47 11.3157 13.1466C10.6384 12.8449 9.95526 12.7338 9.3087 12.8765C9.19251 12.893 9.09662 13.0059 9.08279 13.1545C8.8983 15.1133 9.01538 16.8667 9.50232 18.297C9.96329 19.6513 10.7509 20.7114 11.9207 21.3783Z" fill="#184602"/>
<path d="M11.6443 19.1563C11.7322 19.3051 11.8671 19.2911 11.9457 19.1245C12.0242 18.958 12.0167 18.7022 11.9289 18.5532C11.418 17.6842 10.9895 16.9039 10.7201 16.1847C10.4788 15.5404 10.3711 14.9575 10.4602 14.4151C10.4952 14.2014 10.4323 13.9738 10.3195 13.9073C10.2067 13.8409 10.0867 13.9601 10.0516 14.1739C9.91713 14.9937 10.0529 15.8032 10.3718 16.6544C10.6627 17.4308 11.1115 18.2498 11.6443 19.1563Z" fill="#70CB45"/>
<path d="M14.5078 16.8238C14.5793 17.0313 14.8506 17.1538 15.1137 17.0975C15.3766 17.0413 15.5321 16.8273 15.4607 16.6199C15.0877 15.5392 14.9202 14.3189 15.0085 12.9963C15.0914 11.7553 15.4 10.4223 15.9757 9.02741C16.0598 8.82328 15.9183 8.60402 15.6595 8.53771C15.4006 8.47134 15.1225 8.58296 15.0385 8.78708C14.4357 10.2472 14.1123 11.6481 14.0247 12.9568C13.9304 14.3673 14.1097 15.6695 14.5078 16.8238Z" fill="#70CB45"/>
</svg>
