<svg width="303" height="84" viewBox="0 0 303 84" fill="none" xmlns="http://www.w3.org/2000/svg">
<path fill-rule="evenodd" clip-rule="evenodd" d="M39.8711 7.09023C31.1124 8.39076 24.5171 13.0333 20.6261 20.6366C20.0745 21.7143 18.8832 23.5408 17.9784 24.6955C15.996 27.2255 13.913 31.2558 12.9155 34.4918C9.40203 45.8908 12.2702 58.0261 20.4625 66.4224C24.4615 70.5211 29.0064 73.1689 34.7414 74.7412C37.0977 75.387 37.8783 75.4626 42.1853 75.4626C46.5398 75.4626 47.2577 75.3915 49.744 74.7113C51.2549 74.2981 53.5614 73.4424 54.8693 72.8095L57.2475 71.6587L58.721 72.7795C64.0895 76.8642 71.962 77.9324 77.7903 75.3671C79.4427 74.6399 79.1801 74.3927 76.4991 74.1517C74.1316 73.9387 70.8471 72.8196 68.5799 71.4532C66.8821 70.4301 63.6029 67.7328 63.3975 67.1906C63.3444 67.0512 63.9081 66.2819 64.6496 65.4811C69.1408 60.6311 72.0192 53.4913 72.2774 46.5596L72.3983 43.3105L72.1479 46.1097C71.5009 53.336 68.4697 60.317 64.0728 64.7062L62.5487 66.2273L61.9469 65.686C61.6159 65.3881 59.9214 63.3181 58.1815 61.0857C53.0863 54.5486 51.4102 52.625 49.6448 51.2883C48.7298 50.5955 47.9762 49.9341 47.9701 49.8187C47.9641 49.7034 48.3701 49.6088 48.8725 49.6088C51.4844 49.6088 54.7194 47.2608 56.1266 44.3434C56.7961 42.9553 56.8948 42.4245 56.8948 40.2114C56.8948 37.9385 56.8079 37.4993 56.065 36.0207C54.6983 33.2993 51.8839 31.5218 47.9005 30.8637C46.9498 30.7066 43.6975 30.5686 40.6731 30.5571C37.5871 30.5454 35.4156 30.4368 35.7241 30.31C36.0265 30.1857 37.2019 29.8002 38.3361 29.4537C42.5449 28.1671 46.61 25.6215 51.9458 20.9311C55.6537 17.6717 58.3446 15.8664 60.51 15.1856C61.5023 14.8735 62.4971 14.6182 62.7206 14.6182C63.4866 14.6182 62.9053 13.9173 61.0638 12.6204C54.6757 8.12204 46.7867 6.06319 39.8711 7.09023ZM44.7972 15.7379C44.7038 15.8919 44.3826 16.0179 44.0832 16.0179C42.4184 16.0179 33.9155 20.1199 28.5777 23.498C24.951 25.7934 21.1092 28.5817 20.9148 29.0598C20.6335 29.7512 21.3407 30.0365 24.3307 30.437C28.5104 30.9969 29.3663 31.2653 30.2049 32.2801L30.9126 33.1361V48.3491V63.5622L30.2181 64.4025C29.8362 64.8647 29.0009 65.4312 28.3622 65.6613C27.28 66.0515 27.7166 66.0801 34.7618 66.0798C42.1803 66.0795 42.2972 66.0706 40.9728 65.6121C40.1702 65.3341 39.3896 64.8241 39.0482 64.3544C38.484 63.5787 38.4722 63.2853 38.3979 48.1887C38.3374 35.8875 38.3924 32.8074 38.6729 32.7839C40.8862 32.5992 44.0098 32.8659 45.0331 33.3267C47.6679 34.5133 49.0589 37.001 49.0589 40.5269C49.0589 45.0239 46.5154 47.7747 42.0173 48.1423C41.0511 48.2212 40.2607 48.3578 40.2607 48.4457C40.2607 48.5336 40.6879 49.0517 41.2103 49.597C41.7324 50.1423 44.5787 54.2415 47.5351 58.7063C50.4916 63.1711 53.645 67.7235 54.5424 68.8228L56.1744 70.8217L54.61 71.5274C47.1123 74.9103 37.7837 74.7163 30.5001 71.0264C16.1428 63.7525 10.3286 46.3032 17.5341 32.1135C19.1048 29.0201 21.672 25.6321 23.1935 24.6443C25.1563 23.3698 32.7033 19.5561 35.503 18.4238C38.2701 17.305 43.6796 15.533 44.4698 15.4871C44.7434 15.4712 44.8907 15.584 44.7972 15.7379ZM58.7201 23.5755C57.3141 23.9137 56.9363 24.4195 57.3449 25.4169C57.6586 26.1822 57.6872 26.1948 57.787 25.6109C57.9231 24.8164 59.1106 23.8557 59.9563 23.8557C60.314 23.8557 60.854 24.1077 61.1564 24.4156C62.378 25.6593 61.5042 28.5361 59.0289 31.4207C56.6435 34.2003 56.4972 33.933 60.4028 33.933H63.8407L64.1605 32.6392C64.5129 31.2147 64.4406 30.8978 63.9114 31.5469C63.6645 31.8498 63.0403 31.9736 61.7597 31.9736H59.9555L61.6505 30.3265C62.5826 29.4204 63.4715 28.3415 63.6257 27.9289C64.7882 24.8162 62.3942 22.6918 58.7201 23.5755Z" fill="#7DB100"/>
<path d="M86.1203 39.6716V24.4665H94.0298C95.2733 24.4665 96.2885 24.6948 97.0755 25.1512C97.8783 25.6077 98.4764 26.2452 98.8699 27.0637C99.2634 27.8664 99.4602 28.803 99.4602 29.8733C99.4602 30.8964 99.2005 31.8015 98.6811 32.5885C98.1774 33.3598 97.5005 33.95 96.6506 34.3593C96.8237 34.501 96.9732 34.6741 97.0992 34.8787C97.2251 35.0676 97.3667 35.3352 97.5241 35.6815L99.2713 39.6716H94.6437L93.0382 36.012C92.9123 35.7287 92.7548 35.5319 92.566 35.4218C92.3928 35.2958 92.141 35.2329 91.8104 35.2329H90.5591V39.6716H86.1203ZM90.5591 31.833H92.8965C93.5419 31.833 94.0377 31.6677 94.384 31.3372C94.746 30.9909 94.927 30.5029 94.927 29.8733C94.927 28.5354 94.2974 27.8664 93.0382 27.8664H90.5591V31.833ZM110.931 39.9077C109.908 39.9077 108.94 39.829 108.027 39.6716C107.114 39.4985 106.335 39.2624 105.69 38.9633V35.3037C106.398 35.6343 107.185 35.9018 108.051 36.1065C108.916 36.3111 109.727 36.4134 110.483 36.4134C111.27 36.4134 111.86 36.3504 112.253 36.2245C112.663 36.0829 112.867 35.7759 112.867 35.3037C112.867 34.9732 112.749 34.7134 112.513 34.5246C112.293 34.3357 111.939 34.1625 111.451 34.0051C110.978 33.8477 110.357 33.651 109.585 33.4149C108.562 33.0843 107.752 32.7223 107.153 32.3288C106.555 31.9353 106.123 31.4552 105.855 30.8886C105.603 30.3219 105.477 29.6293 105.477 28.8109C105.477 27.3155 106.004 26.1822 107.059 25.411C108.129 24.6239 109.711 24.2304 111.805 24.2304C112.639 24.2304 113.497 24.3013 114.378 24.4429C115.275 24.5846 116 24.742 116.55 24.9151V28.5984C115.811 28.2993 115.102 28.0868 114.425 27.9609C113.749 27.835 113.111 27.772 112.513 27.772C111.82 27.772 111.23 27.8271 110.742 27.9373C110.254 28.0474 110.01 28.3308 110.01 28.7872C110.01 29.1807 110.215 29.4719 110.624 29.6608C111.049 29.834 111.797 30.0622 112.867 30.3455C114.111 30.6761 115.055 31.0774 115.7 31.5497C116.362 32.0219 116.81 32.5728 117.046 33.2024C117.282 33.8163 117.4 34.5167 117.4 35.3037C117.4 36.6889 116.865 37.8064 115.795 38.6564C114.725 39.4906 113.103 39.9077 110.931 39.9077ZM130.615 45.3853C129.308 45.3853 128.348 45.0863 127.734 44.4882C127.121 43.89 126.814 42.9613 126.814 41.7021V39.2703C126.452 39.4749 126.019 39.6323 125.515 39.7425C125.011 39.8526 124.5 39.9077 123.98 39.9077C122.312 39.9077 120.99 39.4591 120.014 38.5619C119.054 37.6647 118.574 36.2166 118.574 34.2176C118.574 32.2029 119.046 30.7076 119.99 29.7317C120.935 28.74 122.217 28.2442 123.839 28.2442C124.578 28.2442 125.208 28.3465 125.727 28.5511C126.247 28.74 126.727 29.0155 127.168 29.3775L127.404 28.4803H131.252V41.1827C131.252 41.5605 131.315 41.8202 131.441 41.9618C131.583 42.1035 131.835 42.1743 132.197 42.1743C132.559 42.1743 132.913 42.1114 133.259 41.9854V44.9131C132.866 45.0705 132.48 45.1886 132.102 45.2673C131.725 45.346 131.229 45.3853 130.615 45.3853ZM125.09 36.6731C125.468 36.6731 125.79 36.6259 126.058 36.5314C126.326 36.437 126.577 36.2953 126.814 36.1065V32.1399C126.562 31.9196 126.302 31.7543 126.034 31.6441C125.783 31.5339 125.476 31.4788 125.114 31.4788C124.453 31.4788 123.949 31.6913 123.603 32.1163C123.272 32.5413 123.107 33.2181 123.107 34.1468C123.107 35.107 123.28 35.768 123.626 36.1301C123.972 36.4921 124.46 36.6731 125.09 36.6731ZM137.448 39.9077C136.142 39.9077 135.119 39.5378 134.379 38.798C133.639 38.0583 133.269 36.9722 133.269 35.5398V28.4803H137.708V35.1857C137.708 36.1616 138.204 36.6495 139.195 36.6495C139.557 36.6495 139.912 36.5708 140.258 36.4134C140.604 36.256 140.88 36.0592 141.084 35.8231V28.4803H145.523V39.6716H141.368L141.249 38.8217C140.809 39.1365 140.266 39.3962 139.62 39.6008C138.991 39.8054 138.267 39.9077 137.448 39.9077ZM150.785 39.9077C150.077 39.9077 149.416 39.7818 148.802 39.53C148.204 39.2781 147.723 38.8846 147.361 38.3494C146.999 37.8143 146.818 37.1374 146.818 36.319C146.818 35.1384 147.212 34.2255 147.999 33.5801C148.786 32.9191 149.974 32.5885 151.564 32.5885H154.468V32.376C154.468 31.9353 154.287 31.6126 153.925 31.408C153.563 31.2034 152.926 31.1011 152.013 31.1011C150.722 31.1011 149.447 31.2978 148.188 31.6913V29.0233C148.754 28.803 149.463 28.622 150.313 28.4803C151.163 28.3229 152.028 28.2442 152.91 28.2442C154.689 28.2442 156.097 28.6062 157.136 29.3303C158.175 30.0543 158.694 31.2034 158.694 32.7774V39.6716H154.822L154.61 38.7744C154.216 39.1207 153.705 39.3962 153.075 39.6008C152.461 39.8054 151.698 39.9077 150.785 39.9077ZM152.296 37.3106C152.8 37.3106 153.225 37.224 153.571 37.0509C153.933 36.8777 154.232 36.6652 154.468 36.4134V35.0204H152.32C151.344 35.0204 150.856 35.406 150.856 36.1773C150.856 36.9328 151.336 37.3106 152.296 37.3106ZM160.71 39.6716V28.4803H164.983L165.101 29.3775C165.558 29.1099 166.14 28.8659 166.848 28.6456C167.557 28.4252 168.273 28.2914 168.997 28.2442V31.5497C168.588 31.5811 168.139 31.6362 167.651 31.7149C167.179 31.7936 166.715 31.8959 166.258 32.0219C165.818 32.132 165.448 32.258 165.149 32.3996V39.6716H160.71ZM175.957 39.9077C174.65 39.9077 173.493 39.6952 172.486 39.2703C171.494 38.8295 170.715 38.1763 170.148 37.3106C169.598 36.4449 169.322 35.3745 169.322 34.0996C169.322 32.3209 169.826 30.9043 170.833 29.8497C171.84 28.7794 173.344 28.2442 175.343 28.2442C177.169 28.2442 178.593 28.7085 179.616 29.6372C180.655 30.5659 181.174 31.833 181.174 33.4385V35.3982H173.407C173.611 35.9963 174.013 36.4213 174.611 36.6731C175.209 36.925 176.02 37.0509 177.043 37.0509C177.688 37.0509 178.333 36.9958 178.979 36.8856C179.64 36.7597 180.167 36.618 180.561 36.4606V39.1286C179.459 39.648 177.924 39.9077 175.957 39.9077ZM173.407 32.9899H177.35V32.5885C177.35 32.1478 177.208 31.7858 176.925 31.5024C176.657 31.2191 176.177 31.0774 175.484 31.0774C174.713 31.0774 174.17 31.2427 173.855 31.5733C173.556 31.8881 173.407 32.3603 173.407 32.9899Z" fill="white"/>
<path d="M187.663 39.6716V24.4665H199.185V27.8664H192.102V30.3455H198.312V33.7926H192.102V36.2717H199.185V39.6716H187.663ZM199.409 39.6716L203.729 33.9815L199.574 28.4803H204.39L206.138 30.8413L207.908 28.4803H212.701L208.57 33.9815L212.89 39.6716H208.026L206.138 37.1689L204.249 39.6716H199.409ZM214.433 44.7715V28.4803H218.281L218.494 29.3775C218.95 29.0155 219.446 28.74 219.981 28.5511C220.532 28.3465 221.169 28.2442 221.894 28.2442C223.562 28.2442 224.845 28.6692 225.742 29.5192C226.655 30.3534 227.111 31.7779 227.111 33.7926C227.111 35.7917 226.631 37.3106 225.671 38.3494C224.711 39.3883 223.389 39.9077 221.705 39.9077C220.587 39.9077 219.643 39.6952 218.871 39.2703V44.7715H214.433ZM220.571 36.6731C221.217 36.6731 221.713 36.4449 222.059 35.9884C222.405 35.5319 222.578 34.8236 222.578 33.8635C222.578 32.9348 222.413 32.3052 222.082 31.9746C221.768 31.6441 221.28 31.4788 220.619 31.4788C219.957 31.4788 219.375 31.6992 218.871 32.1399V36.1065C219.123 36.2953 219.375 36.437 219.627 36.5314C219.879 36.6259 220.194 36.6731 220.571 36.6731ZM234.842 39.9077C232.607 39.9077 230.954 39.4119 229.884 38.4203C228.829 37.4286 228.302 35.9805 228.302 34.076C228.302 32.1871 228.837 30.7469 229.907 29.7553C230.978 28.7479 232.623 28.2442 234.842 28.2442C237.077 28.2442 238.73 28.7479 239.8 29.7553C240.886 30.7469 241.429 32.1871 241.429 34.076C241.429 35.9805 240.894 37.4286 239.824 38.4203C238.753 39.4119 237.093 39.9077 234.842 39.9077ZM234.842 36.6731C235.566 36.6731 236.085 36.4685 236.4 36.0592C236.731 35.65 236.896 34.9889 236.896 34.076C236.896 33.1788 236.731 32.5256 236.4 32.1163C236.085 31.6913 235.566 31.4788 234.842 31.4788C234.134 31.4788 233.622 31.6913 233.307 32.1163C232.993 32.5256 232.835 33.1788 232.835 34.076C232.835 34.9889 232.993 35.65 233.307 36.0592C233.622 36.4685 234.134 36.6731 234.842 36.6731ZM243.093 39.6716V28.4803H247.366L247.484 29.3775C247.941 29.1099 248.523 28.8659 249.231 28.6456C249.94 28.4252 250.656 28.2914 251.38 28.2442V31.5497C250.971 31.5811 250.522 31.6362 250.034 31.7149C249.562 31.7936 249.097 31.8959 248.641 32.0219C248.2 32.132 247.83 32.258 247.531 32.3996V39.6716H243.093ZM257.431 39.9077C255.936 39.9077 254.85 39.53 254.173 38.7744C253.496 38.0189 253.158 36.9958 253.158 35.7051V31.7622H251.694V28.4803H253.158V26.1901L257.596 25.1276V28.4803H260.17L260.005 31.7622H257.596V35.3745C257.596 35.8467 257.714 36.1852 257.95 36.3898C258.187 36.5787 258.549 36.6731 259.037 36.6731C259.493 36.6731 259.957 36.5944 260.43 36.437V39.3883C259.595 39.7346 258.596 39.9077 257.431 39.9077ZM265.975 39.9077C265.015 39.9077 264.11 39.8369 263.26 39.6952C262.426 39.5693 261.765 39.404 261.277 39.1994V36.012C261.828 36.2639 262.481 36.4606 263.236 36.6023C264.008 36.7439 264.661 36.8148 265.196 36.8148C265.763 36.8148 266.188 36.799 266.471 36.7676C266.77 36.7361 266.92 36.6023 266.92 36.3662C266.92 36.0986 266.66 35.894 266.141 35.7523C265.621 35.6106 264.968 35.406 264.181 35.1384C263.158 34.7764 262.394 34.3514 261.891 33.8635C261.387 33.3755 261.135 32.6672 261.135 31.7385C261.135 30.621 261.576 29.7631 262.457 29.165C263.339 28.5511 264.724 28.2442 266.613 28.2442C267.337 28.2442 268.084 28.2993 268.856 28.4095C269.627 28.5197 270.233 28.6456 270.674 28.7872V31.9038C270.201 31.6992 269.682 31.5497 269.115 31.4552C268.565 31.3608 268.061 31.3136 267.604 31.3136C267.101 31.3136 266.652 31.3372 266.259 31.3844C265.865 31.4316 265.668 31.5654 265.668 31.7858C265.668 32.0376 265.889 32.2186 266.329 32.3288C266.786 32.439 267.392 32.6121 268.147 32.8482C268.997 33.1001 269.658 33.3755 270.131 33.6746C270.619 33.9737 270.957 34.3357 271.146 34.7607C271.351 35.1857 271.453 35.713 271.453 36.3426C271.453 37.4759 270.989 38.3573 270.06 38.9869C269.147 39.6008 267.785 39.9077 265.975 39.9077Z" fill="#7DB100"/>
<path d="M85.2507 60.1521L87.1238 51.2825H93.1149L92.9359 52.1777H88.0741L87.413 55.2766H91.779L91.5861 56.158H87.2202L86.5591 59.2706H91.4209L91.2418 60.1521H85.2507ZM91.858 60.1521L95.0395 56.8329L93.3179 53.6238H94.5437L95.8108 56.0616L98.1109 53.6238H99.3229L96.2791 56.8329L98.042 60.1521H96.8162L95.4803 57.6041L93.0838 60.1521H91.858ZM98.9413 63.127L100.952 53.6238H101.916L101.861 54.3125C102.219 54.0278 102.591 53.8212 102.977 53.6927C103.372 53.555 103.812 53.4861 104.299 53.4861C105.18 53.4861 105.832 53.7616 106.255 54.3125C106.686 54.8542 106.778 55.7173 106.53 56.9017C106.273 58.077 105.837 58.9355 105.222 59.4772C104.616 60.019 103.821 60.2898 102.839 60.2898C101.985 60.2898 101.306 60.0832 100.801 59.6701L100.071 63.127H98.9413ZM102.729 59.3808C103.463 59.3808 104.042 59.1926 104.464 58.8161C104.896 58.4305 105.208 57.7924 105.401 56.9017C105.584 56.0478 105.566 55.4189 105.346 55.0149C105.134 54.6017 104.625 54.3951 103.817 54.3951C103.046 54.3951 102.357 54.6568 101.751 55.1801L100.993 58.7335C101.177 58.9355 101.411 59.0962 101.696 59.2156C101.99 59.3257 102.334 59.3808 102.729 59.3808ZM108.888 60.2898C108.456 60.2898 108.139 60.1613 107.937 59.9042C107.735 59.6379 107.689 59.2523 107.8 58.7473L109.48 50.8693H110.609L108.956 58.6233C108.901 58.8988 108.897 59.087 108.943 59.188C108.998 59.289 109.14 59.3395 109.37 59.3395C109.572 59.3395 109.783 59.312 110.003 59.2569L109.824 60.1521C109.668 60.2072 109.512 60.2439 109.356 60.2623C109.2 60.2806 109.044 60.2898 108.888 60.2898ZM114.075 60.2898C113.001 60.2898 112.253 60.0006 111.83 59.4221C111.408 58.8345 111.312 57.9898 111.541 56.888C111.78 55.7953 112.202 54.9552 112.808 54.3676C113.423 53.7799 114.328 53.4861 115.522 53.4861C116.605 53.4861 117.358 53.7799 117.78 54.3676C118.212 54.9552 118.308 55.7953 118.069 56.888C117.84 57.9898 117.418 58.8345 116.802 59.4221C116.187 60.0006 115.278 60.2898 114.075 60.2898ZM114.282 59.3257C115.062 59.3257 115.655 59.1329 116.059 58.7473C116.472 58.3525 116.766 57.7327 116.94 56.888C117.124 56.0157 117.105 55.3913 116.885 55.0149C116.665 54.6384 116.141 54.4502 115.315 54.4502C114.544 54.4502 113.956 54.6476 113.552 55.0424C113.148 55.4281 112.854 56.0432 112.671 56.888C112.487 57.7694 112.505 58.3984 112.726 58.7748C112.946 59.1421 113.465 59.3257 114.282 59.3257ZM119.05 60.1521L120.428 53.6238H121.447L121.35 54.4502C121.727 54.239 122.149 54.0462 122.617 53.8717C123.086 53.6973 123.54 53.5687 123.981 53.4861L123.802 54.3676C123.526 54.4226 123.228 54.5007 122.907 54.6017C122.585 54.6935 122.273 54.7991 121.97 54.9185C121.676 55.0378 121.424 55.1618 121.213 55.2903L120.18 60.1521H119.05ZM126.018 52.0951L126.239 51.0621H127.492L127.271 52.0951H126.018ZM124.421 60.1521L125.605 54.5191H124.6L124.903 53.6238H126.927L125.55 60.1521H124.421ZM127.51 60.1521L128.888 53.6238H129.907L129.824 54.3676C130.191 54.1105 130.6 53.8993 131.05 53.734C131.5 53.5687 131.996 53.4861 132.537 53.4861C134.117 53.4861 134.736 54.2849 134.397 55.8826L133.501 60.1521H132.372L133.267 55.9239C133.387 55.3546 133.359 54.9598 133.185 54.7394C133.019 54.5099 132.611 54.3951 131.959 54.3951C131.582 54.3951 131.183 54.4686 130.761 54.6155C130.348 54.7624 129.989 54.9644 129.686 55.2215L128.64 60.1521H127.51ZM137.519 62.5761C137.372 62.5761 137.193 62.5669 136.981 62.5486C136.77 62.5394 136.568 62.5256 136.375 62.5072C136.183 62.4889 136.026 62.4659 135.907 62.4384L136.114 61.4743C136.297 61.5386 136.531 61.5799 136.816 61.5982C137.11 61.6258 137.349 61.6396 137.532 61.6396C138.212 61.6396 138.781 61.5248 139.24 61.2952C139.699 61.0749 139.984 60.703 140.094 60.1796L140.232 59.5323C139.543 59.9455 138.776 60.1521 137.932 60.1521C137.362 60.1521 136.876 60.0419 136.472 59.8216C136.068 59.592 135.792 59.2339 135.645 58.7473C135.499 58.2515 135.508 57.6133 135.673 56.8329C135.921 55.6484 136.348 54.7945 136.954 54.2711C137.56 53.7478 138.349 53.4861 139.323 53.4861C139.809 53.4861 140.218 53.555 140.549 53.6927C140.888 53.8212 141.182 54.0278 141.43 54.3125L141.65 53.6238H142.614L141.251 60.0281C141.076 60.8361 140.672 61.4605 140.039 61.9012C139.415 62.3511 138.574 62.5761 137.519 62.5761ZM138.428 59.2431C138.822 59.2431 139.185 59.188 139.516 59.0778C139.855 58.9585 140.163 58.7978 140.438 58.5958L141.155 55.1801C140.971 54.9139 140.728 54.7165 140.425 54.5879C140.131 54.4594 139.796 54.3951 139.419 54.3951C138.657 54.3951 138.074 54.5879 137.67 54.9736C137.275 55.3592 136.986 55.979 136.802 56.8329C136.61 57.7235 136.637 58.3479 136.885 58.706C137.142 59.0641 137.656 59.2431 138.428 59.2431ZM146.26 60.1521L148.133 51.2825H149.262L148.422 55.2766H153.105L153.945 51.2825H155.074L153.201 60.1521H152.072L152.912 56.158H148.229L147.389 60.1521H146.26ZM158.304 60.2898C157.175 60.2898 156.371 60.0098 155.894 59.4497C155.417 58.8896 155.302 58.0265 155.55 56.8604C155.779 55.8137 156.197 54.9919 156.803 54.3951C157.418 53.7891 158.281 53.4861 159.392 53.4861C160.035 53.4861 160.54 53.6055 160.907 53.8442C161.284 54.0737 161.532 54.3951 161.651 54.8083C161.77 55.2123 161.775 55.6714 161.665 56.1856L161.403 57.4113H156.569C156.505 57.9071 156.518 58.2974 156.61 58.582C156.711 58.8666 156.927 59.0732 157.258 59.2018C157.597 59.3211 158.084 59.3808 158.717 59.3808C159.388 59.3808 160.03 59.2661 160.646 59.0365L160.453 59.918C160.141 60.0373 159.801 60.1291 159.434 60.1934C159.066 60.2577 158.69 60.2898 158.304 60.2898ZM156.734 56.5987H160.563L160.687 56.0616C160.797 55.5291 160.756 55.1205 160.563 54.8358C160.37 54.542 159.925 54.3951 159.227 54.3951C158.483 54.3951 157.919 54.5787 157.533 54.946C157.157 55.3133 156.89 55.8642 156.734 56.5987ZM164.909 60.2898C163.991 60.2898 163.325 60.0373 162.912 59.5323C162.508 59.0273 162.42 58.2101 162.65 57.0808C162.815 56.2911 163.086 55.6301 163.463 55.0975C163.839 54.565 164.289 54.1656 164.812 53.8993C165.336 53.6238 165.891 53.4861 166.479 53.4861C166.901 53.4861 167.264 53.5366 167.567 53.6376C167.87 53.7386 168.154 53.8947 168.421 54.1059L168.517 53.6238H169.647L168.269 60.1521H167.305L167.36 59.4635C166.993 59.7481 166.612 59.9593 166.217 60.097C165.831 60.2256 165.395 60.2898 164.909 60.2898ZM165.391 59.3808C165.767 59.3808 166.13 59.3166 166.479 59.188C166.828 59.0595 167.158 58.8621 167.47 58.5958L168.214 55.0424C168.04 54.8404 167.824 54.6843 167.567 54.5741C167.31 54.4548 166.984 54.3951 166.589 54.3951C165.827 54.3951 165.212 54.6201 164.743 55.07C164.284 55.5199 163.963 56.1901 163.779 57.0808C163.605 57.9347 163.628 58.5315 163.848 58.8712C164.078 59.211 164.592 59.3808 165.391 59.3808ZM171.497 60.2898C171.065 60.2898 170.749 60.1613 170.547 59.9042C170.345 59.6379 170.299 59.2523 170.409 58.7473L172.089 50.8693H173.219L171.566 58.6233C171.511 58.8988 171.506 59.087 171.552 59.188C171.607 59.289 171.75 59.3395 171.979 59.3395C172.181 59.3395 172.392 59.312 172.613 59.2569L172.434 60.1521C172.277 60.2072 172.121 60.2439 171.965 60.2623C171.809 60.2806 171.653 60.2898 171.497 60.2898ZM175.743 60.2898C175.137 60.2898 174.701 60.12 174.434 59.7802C174.168 59.4313 174.099 58.9493 174.228 58.3341L175.027 54.5191H174.035L174.228 53.6238H175.22L175.564 52.0124L176.762 51.6681L176.349 53.6238H178.153L177.891 54.5191H176.156L175.357 58.279C175.275 58.6738 175.293 58.9585 175.412 59.1329C175.541 59.2982 175.807 59.3808 176.211 59.3808C176.34 59.3808 176.487 59.3716 176.652 59.3533C176.817 59.3257 176.982 59.289 177.148 59.2431L176.955 60.097C176.588 60.2256 176.184 60.2898 175.743 60.2898ZM178.257 60.1521L180.226 50.8693H181.355L180.612 54.3262C180.97 54.0783 181.369 53.8763 181.81 53.7202C182.251 53.5641 182.742 53.4861 183.284 53.4861C184.037 53.4861 184.574 53.6881 184.895 54.0921C185.226 54.4961 185.308 55.0929 185.143 55.8826L184.248 60.1521H183.118L184.014 55.9239C184.133 55.3546 184.101 54.9598 183.917 54.7394C183.734 54.5099 183.33 54.3951 182.705 54.3951C182.338 54.3951 181.943 54.4777 181.521 54.643C181.098 54.7991 180.731 55.0057 180.419 55.2628L179.386 60.1521H178.257ZM185.574 61.8048L186.483 59.3671H187.502L186.401 61.8048H185.574ZM188.909 60.1521L190.782 51.2825H196.594L196.415 52.1777H191.733L191.072 55.2766H195.245L195.052 56.158H190.879L190.039 60.1521H188.909ZM197.496 60.2898C197.064 60.2898 196.747 60.1613 196.545 59.9042C196.343 59.6379 196.297 59.2523 196.408 58.7473L198.088 50.8693H199.217L197.565 58.6233C197.509 58.8988 197.505 59.087 197.551 59.188C197.606 59.289 197.748 59.3395 197.978 59.3395C198.18 59.3395 198.391 59.312 198.611 59.2569L198.432 60.1521C198.276 60.2072 198.12 60.2439 197.964 60.2623C197.808 60.2806 197.652 60.2898 197.496 60.2898ZM202.367 60.2898C201.449 60.2898 200.783 60.0373 200.37 59.5323C199.966 59.0273 199.878 58.2101 200.108 57.0808C200.273 56.2911 200.544 55.6301 200.921 55.0975C201.297 54.565 201.747 54.1656 202.27 53.8993C202.794 53.6238 203.349 53.4861 203.937 53.4861C204.359 53.4861 204.722 53.5366 205.025 53.6376C205.328 53.7386 205.613 53.8947 205.879 54.1059L205.975 53.6238H207.105L205.727 60.1521H204.763L204.818 59.4635C204.451 59.7481 204.07 59.9593 203.675 60.097C203.29 60.2256 202.853 60.2898 202.367 60.2898ZM202.849 59.3808C203.225 59.3808 203.588 59.3166 203.937 59.188C204.286 59.0595 204.616 58.8621 204.928 58.5958L205.672 55.0424C205.498 54.8404 205.282 54.6843 205.025 54.5741C204.768 54.4548 204.442 54.3951 204.047 54.3951C203.285 54.3951 202.67 54.6201 202.201 55.07C201.742 55.5199 201.421 56.1901 201.237 57.0808C201.063 57.9347 201.086 58.5315 201.306 58.8712C201.536 59.211 202.05 59.3808 202.849 59.3808ZM209.514 60.1521L208.33 53.6238H209.459L210.327 59.1054L213.508 53.6238H214.72L210.781 60.1521H209.514ZM217.183 60.2898C216.108 60.2898 215.36 60.0006 214.938 59.4221C214.515 58.8345 214.419 57.9898 214.648 56.888C214.887 55.7953 215.309 54.9552 215.915 54.3676C216.531 53.7799 217.435 53.4861 218.629 53.4861C219.712 53.4861 220.465 53.7799 220.887 54.3676C221.319 54.9552 221.415 55.7953 221.177 56.888C220.947 57.9898 220.525 58.8345 219.91 59.4221C219.294 60.0006 218.385 60.2898 217.183 60.2898ZM217.389 59.3257C218.17 59.3257 218.762 59.1329 219.166 58.7473C219.579 58.3525 219.873 57.7327 220.047 56.888C220.231 56.0157 220.213 55.3913 219.992 55.0149C219.772 54.6384 219.248 54.4502 218.422 54.4502C217.651 54.4502 217.063 54.6476 216.659 55.0424C216.255 55.4281 215.961 56.0432 215.778 56.888C215.594 57.7694 215.612 58.3984 215.833 58.7748C216.053 59.1421 216.572 59.3257 217.389 59.3257ZM224.416 60.2898C223.691 60.2898 223.158 60.0741 222.819 59.6425C222.488 59.211 222.41 58.582 222.584 57.7556L223.466 53.6238H224.595L223.714 57.797C223.594 58.3846 223.631 58.7978 223.824 59.0365C224.017 59.2661 224.421 59.3808 225.036 59.3808C225.44 59.3808 225.835 59.3074 226.22 59.1605C226.606 59.0044 226.96 58.8024 227.281 58.5545L228.328 53.6238H229.457L228.08 60.1521H227.061L227.143 59.4084C226.776 59.6563 226.372 59.8675 225.931 60.0419C225.491 60.2072 224.986 60.2898 224.416 60.2898ZM230.026 60.1521L231.403 53.6238H232.422L232.326 54.4502C232.702 54.239 233.125 54.0462 233.593 53.8717C234.061 53.6973 234.516 53.5687 234.956 53.4861L234.777 54.3676C234.502 54.4226 234.203 54.5007 233.882 54.6017C233.561 54.6935 233.249 54.7991 232.946 54.9185C232.652 55.0378 232.399 55.1618 232.188 55.2903L231.155 60.1521H230.026ZM232.945 61.8048L233.854 59.3671H234.873L233.771 61.8048H232.945ZM242.071 60.2898C241.153 60.2898 240.487 60.0373 240.074 59.5323C239.67 59.0273 239.583 58.2101 239.812 57.0808C239.977 56.2911 240.248 55.6301 240.625 55.0975C241.001 54.565 241.451 54.1656 241.975 53.8993C242.498 53.6238 243.053 53.4861 243.641 53.4861C244.063 53.4861 244.426 53.5366 244.729 53.6376C245.032 53.7386 245.317 53.8947 245.583 54.1059L245.679 53.6238H246.809L245.431 60.1521H244.467L244.522 59.4635C244.155 59.7481 243.774 59.9593 243.379 60.097C242.994 60.2256 242.558 60.2898 242.071 60.2898ZM242.553 59.3808C242.929 59.3808 243.292 59.3166 243.641 59.188C243.99 59.0595 244.32 58.8621 244.633 58.5958L245.376 55.0424C245.202 54.8404 244.986 54.6843 244.729 54.5741C244.472 54.4548 244.146 54.3951 243.751 54.3951C242.989 54.3951 242.374 54.6201 241.906 55.07C241.447 55.5199 241.125 56.1901 240.942 57.0808C240.767 57.9347 240.79 58.5315 241.01 58.8712C241.24 59.211 241.754 59.3808 242.553 59.3808ZM247.282 60.1521L248.659 53.6238H249.678L249.596 54.3676C249.963 54.1105 250.372 53.8993 250.822 53.734C251.271 53.5687 251.767 53.4861 252.309 53.4861C253.888 53.4861 254.508 54.2849 254.168 55.8826L253.273 60.1521H252.144L253.039 55.9239C253.158 55.3546 253.131 54.9598 252.956 54.7394C252.791 54.5099 252.382 54.3951 251.731 54.3951C251.354 54.3951 250.955 54.4686 250.532 54.6155C250.119 54.7624 249.761 54.9644 249.458 55.2215L248.411 60.1521H247.282ZM257.552 60.2898C256.973 60.2898 256.487 60.1751 256.092 59.9455C255.697 59.7068 255.431 59.3395 255.293 58.8437C255.155 58.3387 255.169 57.6914 255.334 56.9017C255.582 55.7265 256.028 54.8634 256.67 54.3125C257.313 53.7616 258.094 53.4861 259.012 53.4861C259.856 53.4861 260.54 53.6927 261.064 54.1059L261.752 50.8693H262.882L260.912 60.1521H259.948L260.003 59.4635C259.636 59.7481 259.255 59.9593 258.86 60.097C258.475 60.2256 258.038 60.2898 257.552 60.2898ZM258.034 59.3808C258.41 59.3808 258.773 59.3166 259.122 59.188C259.471 59.0595 259.801 58.8621 260.114 58.5958L260.857 55.0424C260.683 54.8404 260.449 54.6843 260.155 54.5741C259.861 54.4548 259.517 54.3951 259.122 54.3951C258.424 54.3951 257.85 54.5925 257.4 54.9873C256.96 55.373 256.647 56.0111 256.464 56.9017C256.28 57.7556 256.298 58.3846 256.519 58.7886C256.739 59.1834 257.244 59.3808 258.034 59.3808ZM267.298 60.2898C266.931 60.2898 266.596 60.2577 266.293 60.1934C265.99 60.1383 265.728 60.0649 265.508 59.9731L265.714 59.009C265.916 59.1008 266.164 59.1788 266.458 59.2431C266.761 59.3074 267.064 59.3395 267.367 59.3395C268.019 59.3395 268.496 59.2018 268.799 58.9263C269.112 58.6509 269.327 58.2193 269.447 57.6317L270.797 51.2825H271.926L270.562 57.7143C270.388 58.5223 270.044 59.1559 269.529 59.615C269.024 60.0649 268.281 60.2898 267.298 60.2898ZM274.842 60.2898C273.768 60.2898 273.02 60.0006 272.597 59.4221C272.175 58.8345 272.079 57.9898 272.308 56.888C272.547 55.7953 272.969 54.9552 273.575 54.3676C274.19 53.7799 275.095 53.4861 276.289 53.4861C277.372 53.4861 278.125 53.7799 278.547 54.3676C278.979 54.9552 279.075 55.7953 278.836 56.888C278.607 57.9898 278.185 58.8345 277.569 59.4221C276.954 60.0006 276.045 60.2898 274.842 60.2898ZM275.049 59.3257C275.829 59.3257 276.422 59.1329 276.826 58.7473C277.239 58.3525 277.533 57.7327 277.707 56.888C277.891 56.0157 277.872 55.3913 277.652 55.0149C277.432 54.6384 276.908 54.4502 276.082 54.4502C275.311 54.4502 274.723 54.6476 274.319 55.0424C273.915 55.4281 273.621 56.0432 273.438 56.888C273.254 57.7694 273.272 58.3984 273.493 58.7748C273.713 59.1421 274.232 59.3257 275.049 59.3257ZM281.828 62.5761C281.681 62.5761 281.502 62.5669 281.291 62.5486C281.08 62.5394 280.878 62.5256 280.685 62.5072C280.492 62.4889 280.336 62.4659 280.217 62.4384L280.423 61.4743C280.607 61.5386 280.841 61.5799 281.126 61.5982C281.42 61.6258 281.658 61.6396 281.842 61.6396C282.604 61.6396 283.242 61.534 283.756 61.3228C284.28 61.1116 284.601 60.7306 284.72 60.1796L284.886 59.4084C284.518 59.6655 284.101 59.8766 283.632 60.0419C283.164 60.2072 282.673 60.2898 282.159 60.2898C281.433 60.2898 280.901 60.0695 280.561 59.6287C280.231 59.188 280.152 58.5636 280.327 57.7556L281.208 53.6238H282.338L281.456 57.797C281.337 58.3846 281.374 58.7978 281.566 59.0365C281.768 59.2661 282.172 59.3808 282.778 59.3808C283.182 59.3808 283.577 59.3074 283.963 59.1605C284.358 59.0136 284.711 58.8116 285.023 58.5545L286.07 53.6238H287.2L285.836 60.0281C285.652 60.9188 285.225 61.5661 284.555 61.9701C283.885 62.3741 282.976 62.5761 281.828 62.5761ZM288.246 58.0311L289.141 53.4448L289.596 51.2825H290.725L290.271 53.4448L289.21 58.0311H288.246ZM287.668 60.1521L287.847 59.2569H289.086L288.907 60.1521H287.668Z" fill="white"/>
</svg>
