<svg width="303" height="83" viewBox="0 0 303 83" fill="none" xmlns="http://www.w3.org/2000/svg">
<path fill-rule="evenodd" clip-rule="evenodd" d="M39.8711 6.61611C31.1124 7.91664 24.5171 12.5592 20.6261 20.1625C20.0745 21.2402 18.8832 23.0667 17.9784 24.2214C15.996 26.7514 13.913 30.7817 12.9155 34.0176C9.40203 45.4167 12.2702 57.552 20.4625 65.9483C24.4615 70.047 29.0064 72.6948 34.7414 74.2671C37.0977 74.9129 37.8783 74.9885 42.1853 74.9885C46.5398 74.9885 47.2577 74.9174 49.744 74.2372C51.2549 73.824 53.5614 72.9683 54.8693 72.3354L57.2475 71.1846L58.721 72.3054C64.0895 76.3901 71.962 77.4583 77.7903 74.893C79.4427 74.1658 79.1801 73.9186 76.4991 73.6776C74.1316 73.4646 70.8471 72.3454 68.5799 70.9791C66.8821 69.956 63.6029 67.2586 63.3975 66.7164C63.3444 66.577 63.9081 65.8078 64.6496 65.0069C69.1408 60.157 72.0192 53.0172 72.2774 46.0854L72.3983 42.8364L72.1479 45.6356C71.5009 52.8619 68.4697 59.8429 64.0728 64.2321L62.5487 65.7532L61.9469 65.2118C61.6159 64.914 59.9214 62.844 58.1815 60.6116C53.0863 54.0745 51.4102 52.1508 49.6448 50.8142C48.7298 50.1214 47.9762 49.4599 47.9701 49.3446C47.9641 49.2293 48.3701 49.1347 48.8725 49.1347C51.4844 49.1347 54.7194 46.7867 56.1266 43.8693C56.7961 42.4811 56.8948 41.9504 56.8948 39.7373C56.8948 37.4643 56.8079 37.0251 56.065 35.5466C54.6983 32.8252 51.8839 31.0476 47.9005 30.3895C46.9498 30.2325 43.6975 30.0945 40.6731 30.083C37.5871 30.0713 35.4156 29.9626 35.7241 29.8358C36.0265 29.7116 37.2019 29.3261 38.3361 28.9796C42.5449 27.693 46.61 25.1474 51.9458 20.457C55.6537 17.1975 58.3446 15.3923 60.51 14.7115C61.5023 14.3994 62.4971 14.1441 62.7206 14.1441C63.4866 14.1441 62.9053 13.4432 61.0638 12.1463C54.6757 7.64791 46.7867 5.58907 39.8711 6.61611ZM44.7972 15.2638C44.7038 15.4178 44.3826 15.5437 44.0832 15.5437C42.4184 15.5437 33.9155 19.6458 28.5777 23.0239C24.951 25.3193 21.1092 28.1076 20.9148 28.5857C20.6335 29.2771 21.3407 29.5624 24.3307 29.9629C28.5104 30.5228 29.3663 30.7912 30.2049 31.8059L30.9126 32.662V47.875V63.0881L30.2181 63.9284C29.8362 64.3905 29.0009 64.9571 28.3622 65.1872C27.28 65.5774 27.7166 65.606 34.7618 65.6057C42.1803 65.6054 42.2972 65.5965 40.9728 65.1379C40.1702 64.86 39.3896 64.35 39.0482 63.8802C38.484 63.1046 38.4722 62.8112 38.3979 47.7146C38.3374 35.4133 38.3924 32.3333 38.6729 32.3098C40.8862 32.1251 44.0098 32.3918 45.0331 32.8526C47.6679 34.0392 49.0589 36.5269 49.0589 40.0528C49.0589 44.5498 46.5154 47.3006 42.0173 47.6681C41.0511 47.7471 40.2607 47.8837 40.2607 47.9716C40.2607 48.0595 40.6879 48.5776 41.2103 49.1229C41.7324 49.6682 44.5787 53.7674 47.5351 58.2322C50.4916 62.697 53.645 67.2494 54.5424 68.3487L56.1744 70.3476L54.61 71.0533C47.1123 74.4362 37.7837 74.2422 30.5001 70.5522C16.1428 63.2784 10.3286 45.829 17.5341 31.6394C19.1048 28.5459 21.672 25.158 23.1935 24.1702C25.1563 22.8957 32.7033 19.082 35.503 17.9497C38.2701 16.8308 43.6796 15.0589 44.4698 15.013C44.7434 14.997 44.8907 15.1099 44.7972 15.2638ZM58.7201 23.1014C57.3141 23.4396 56.9363 23.9454 57.3449 24.9428C57.6586 25.7081 57.6872 25.7207 57.787 25.1367C57.9231 24.3423 59.1106 23.3816 59.9563 23.3816C60.314 23.3816 60.854 23.6336 61.1564 23.9415C62.378 25.1852 61.5042 28.062 59.0289 30.9466C56.6435 33.7262 56.4972 33.4589 60.4028 33.4589H63.8407L64.1605 32.1651C64.5129 30.7406 64.4406 30.4237 63.9114 31.0728C63.6645 31.3757 63.0403 31.4994 61.7597 31.4994H59.9555L61.6505 29.8524C62.5826 28.9462 63.4715 27.8674 63.6257 27.4548C64.7882 24.342 62.3942 22.2177 58.7201 23.1014Z" fill="#7DB100"/>
<path d="M86.1203 39.1975V23.9924H94.0298C95.2733 23.9924 96.2885 24.2207 97.0755 24.6771C97.8783 25.1336 98.4764 25.7711 98.8699 26.5896C99.2634 27.3923 99.4602 28.3289 99.4602 29.3992C99.4602 30.4223 99.2005 31.3274 98.6811 32.1144C98.1774 32.8857 97.5005 33.4759 96.6506 33.8852C96.8237 34.0268 96.9732 34.2 97.0992 34.4046C97.2251 34.5935 97.3667 34.8611 97.5241 35.2074L99.2713 39.1975H94.6437L93.0382 35.5379C92.9123 35.2546 92.7548 35.0578 92.566 34.9476C92.3928 34.8217 92.141 34.7588 91.8104 34.7588H90.5591V39.1975H86.1203ZM90.5591 31.3589H92.8965C93.5419 31.3589 94.0377 31.1936 94.384 30.863C94.746 30.5168 94.927 30.0288 94.927 29.3992C94.927 28.0613 94.2974 27.3923 93.0382 27.3923H90.5591V31.3589ZM110.931 39.4336C109.908 39.4336 108.94 39.3549 108.027 39.1975C107.114 39.0244 106.335 38.7883 105.69 38.4892V34.8296C106.398 35.1601 107.185 35.4277 108.051 35.6323C108.916 35.837 109.727 35.9393 110.483 35.9393C111.27 35.9393 111.86 35.8763 112.253 35.7504C112.663 35.6087 112.867 35.3018 112.867 34.8296C112.867 34.499 112.749 34.2393 112.513 34.0504C112.293 33.8616 111.939 33.6884 111.451 33.531C110.978 33.3736 110.357 33.1769 109.585 32.9408C108.562 32.6102 107.752 32.2482 107.153 31.8547C106.555 31.4612 106.123 30.9811 105.855 30.4144C105.603 29.8478 105.477 29.1552 105.477 28.3367C105.477 26.8414 106.004 25.7081 107.059 24.9368C108.129 24.1498 109.711 23.7563 111.805 23.7563C112.639 23.7563 113.497 23.8271 114.378 23.9688C115.275 24.1105 116 24.2679 116.55 24.441V28.1242C115.811 27.8252 115.102 27.6127 114.425 27.4868C113.749 27.3608 113.111 27.2979 112.513 27.2979C111.82 27.2979 111.23 27.353 110.742 27.4631C110.254 27.5733 110.01 27.8567 110.01 28.3131C110.01 28.7066 110.215 28.9978 110.624 29.1867C111.049 29.3598 111.797 29.5881 112.867 29.8714C114.111 30.202 115.055 30.6033 115.7 31.0755C116.362 31.5477 116.81 32.0987 117.046 32.7283C117.282 33.3421 117.4 34.0426 117.4 34.8296C117.4 36.2147 116.865 37.3323 115.795 38.1823C114.725 39.0165 113.103 39.4336 110.931 39.4336ZM130.615 44.9112C129.308 44.9112 128.348 44.6122 127.734 44.014C127.121 43.4159 126.814 42.4872 126.814 41.228V38.7961C126.452 39.0008 126.019 39.1582 125.515 39.2683C125.011 39.3785 124.5 39.4336 123.98 39.4336C122.312 39.4336 120.99 38.985 120.014 38.0878C119.054 37.1906 118.574 35.7425 118.574 33.7435C118.574 31.7288 119.046 30.2334 119.99 29.2575C120.935 28.2659 122.217 27.7701 123.839 27.7701C124.578 27.7701 125.208 27.8724 125.727 28.077C126.247 28.2659 126.727 28.5414 127.168 28.9034L127.404 28.0062H131.252V40.7086C131.252 41.0863 131.315 41.3461 131.441 41.4877C131.583 41.6294 131.835 41.7002 132.197 41.7002C132.559 41.7002 132.913 41.6373 133.259 41.5113V44.439C132.866 44.5964 132.48 44.7145 132.102 44.7932C131.725 44.8719 131.229 44.9112 130.615 44.9112ZM125.09 36.199C125.468 36.199 125.79 36.1518 126.058 36.0573C126.326 35.9629 126.577 35.8212 126.814 35.6323V31.6658C126.562 31.4454 126.302 31.2802 126.034 31.17C125.783 31.0598 125.476 31.0047 125.114 31.0047C124.453 31.0047 123.949 31.2172 123.603 31.6422C123.272 32.0672 123.107 32.744 123.107 33.6727C123.107 34.6328 123.28 35.2939 123.626 35.656C123.972 36.018 124.46 36.199 125.09 36.199ZM137.448 39.4336C136.142 39.4336 135.119 39.0637 134.379 38.3239C133.639 37.5841 133.269 36.4981 133.269 35.0657V28.0062H137.708V34.7115C137.708 35.6874 138.204 36.1754 139.195 36.1754C139.557 36.1754 139.912 36.0967 140.258 35.9393C140.604 35.7819 140.88 35.5851 141.084 35.349V28.0062H145.523V39.1975H141.368L141.249 38.3475C140.809 38.6623 140.266 38.9221 139.62 39.1267C138.991 39.3313 138.267 39.4336 137.448 39.4336ZM150.785 39.4336C150.077 39.4336 149.416 39.3077 148.802 39.0558C148.204 38.804 147.723 38.4105 147.361 37.8753C146.999 37.3402 146.818 36.6633 146.818 35.8448C146.818 34.6643 147.212 33.7514 147.999 33.106C148.786 32.4449 149.974 32.1144 151.564 32.1144H154.468V31.9019C154.468 31.4612 154.287 31.1385 153.925 30.9339C153.563 30.7292 152.926 30.6269 152.013 30.6269C150.722 30.6269 149.447 30.8237 148.188 31.2172V28.5492C148.754 28.3289 149.463 28.1478 150.313 28.0062C151.163 27.8488 152.028 27.7701 152.91 27.7701C154.689 27.7701 156.097 28.1321 157.136 28.8562C158.175 29.5802 158.694 30.7292 158.694 32.3033V39.1975H154.822L154.61 38.3003C154.216 38.6466 153.705 38.9221 153.075 39.1267C152.461 39.3313 151.698 39.4336 150.785 39.4336ZM152.296 36.8365C152.8 36.8365 153.225 36.7499 153.571 36.5768C153.933 36.4036 154.232 36.1911 154.468 35.9393V34.5463H152.32C151.344 34.5463 150.856 34.9319 150.856 35.7032C150.856 36.4587 151.336 36.8365 152.296 36.8365ZM160.71 39.1975V28.0062H164.983L165.101 28.9034C165.558 28.6358 166.14 28.3918 166.848 28.1715C167.557 27.9511 168.273 27.8173 168.997 27.7701V31.0755C168.588 31.107 168.139 31.1621 167.651 31.2408C167.179 31.3195 166.715 31.4218 166.258 31.5477C165.818 31.6579 165.448 31.7838 165.149 31.9255V39.1975H160.71ZM175.957 39.4336C174.65 39.4336 173.493 39.2211 172.486 38.7961C171.494 38.3554 170.715 37.7022 170.148 36.8365C169.598 35.9708 169.322 34.9004 169.322 33.6255C169.322 31.8468 169.826 30.4302 170.833 29.3756C171.84 28.3052 173.344 27.7701 175.343 27.7701C177.169 27.7701 178.593 28.2344 179.616 29.1631C180.655 30.0918 181.174 31.3589 181.174 32.9644V34.924H173.407C173.611 35.5222 174.013 35.9471 174.611 36.199C175.209 36.4508 176.02 36.5768 177.043 36.5768C177.688 36.5768 178.333 36.5217 178.979 36.4115C179.64 36.2856 180.167 36.1439 180.561 35.9865V38.6545C179.459 39.1739 177.924 39.4336 175.957 39.4336ZM173.407 32.5158H177.35V32.1144C177.35 31.6737 177.208 31.3116 176.925 31.0283C176.657 30.745 176.177 30.6033 175.484 30.6033C174.713 30.6033 174.17 30.7686 173.855 31.0991C173.556 31.414 173.407 31.8862 173.407 32.5158Z" fill="#232323"/>
<path d="M187.663 39.1975V23.9924H199.185V27.3923H192.102V29.8714H198.312V33.3185H192.102V35.7976H199.185V39.1975H187.663ZM199.409 39.1975L203.729 33.5074L199.574 28.0062H204.39L206.138 30.3672L207.908 28.0062H212.701L208.57 33.5074L212.89 39.1975H208.026L206.138 36.6948L204.249 39.1975H199.409ZM214.433 44.2974V28.0062H218.281L218.494 28.9034C218.95 28.5414 219.446 28.2659 219.981 28.077C220.532 27.8724 221.169 27.7701 221.894 27.7701C223.562 27.7701 224.845 28.1951 225.742 29.045C226.655 29.8793 227.111 31.3038 227.111 33.3185C227.111 35.3175 226.631 36.8365 225.671 37.8753C224.711 38.9142 223.389 39.4336 221.705 39.4336C220.587 39.4336 219.643 39.2211 218.871 38.7961V44.2974H214.433ZM220.571 36.199C221.217 36.199 221.713 35.9708 222.059 35.5143C222.405 35.0578 222.578 34.3495 222.578 33.3894C222.578 32.4607 222.413 31.8311 222.082 31.5005C221.768 31.17 221.28 31.0047 220.619 31.0047C219.957 31.0047 219.375 31.2251 218.871 31.6658V35.6323C219.123 35.8212 219.375 35.9629 219.627 36.0573C219.879 36.1518 220.194 36.199 220.571 36.199ZM234.842 39.4336C232.607 39.4336 230.954 38.9378 229.884 37.9462C228.829 36.9545 228.302 35.5064 228.302 33.6018C228.302 31.713 228.837 30.2728 229.907 29.2811C230.978 28.2738 232.623 27.7701 234.842 27.7701C237.077 27.7701 238.73 28.2738 239.8 29.2811C240.886 30.2728 241.429 31.713 241.429 33.6018C241.429 35.5064 240.894 36.9545 239.824 37.9462C238.753 38.9378 237.093 39.4336 234.842 39.4336ZM234.842 36.199C235.566 36.199 236.085 35.9944 236.4 35.5851C236.731 35.1759 236.896 34.5148 236.896 33.6018C236.896 32.7047 236.731 32.0514 236.4 31.6422C236.085 31.2172 235.566 31.0047 234.842 31.0047C234.134 31.0047 233.622 31.2172 233.307 31.6422C232.993 32.0514 232.835 32.7047 232.835 33.6018C232.835 34.5148 232.993 35.1759 233.307 35.5851C233.622 35.9944 234.134 36.199 234.842 36.199ZM243.093 39.1975V28.0062H247.366L247.484 28.9034C247.941 28.6358 248.523 28.3918 249.231 28.1715C249.94 27.9511 250.656 27.8173 251.38 27.7701V31.0755C250.971 31.107 250.522 31.1621 250.034 31.2408C249.562 31.3195 249.097 31.4218 248.641 31.5477C248.2 31.6579 247.83 31.7838 247.531 31.9255V39.1975H243.093ZM257.431 39.4336C255.936 39.4336 254.85 39.0558 254.173 38.3003C253.496 37.5448 253.158 36.5217 253.158 35.231V31.288H251.694V28.0062H253.158V25.716L257.596 24.6535V28.0062H260.17L260.005 31.288H257.596V34.9004C257.596 35.3726 257.714 35.711 257.95 35.9157C258.187 36.1045 258.549 36.199 259.037 36.199C259.493 36.199 259.957 36.1203 260.43 35.9629V38.9142C259.595 39.2605 258.596 39.4336 257.431 39.4336ZM265.975 39.4336C265.015 39.4336 264.11 39.3628 263.26 39.2211C262.426 39.0952 261.765 38.9299 261.277 38.7253V35.5379C261.828 35.7897 262.481 35.9865 263.236 36.1282C264.008 36.2698 264.661 36.3407 265.196 36.3407C265.763 36.3407 266.188 36.3249 266.471 36.2934C266.77 36.262 266.92 36.1282 266.92 35.8921C266.92 35.6245 266.66 35.4198 266.141 35.2782C265.621 35.1365 264.968 34.9319 264.181 34.6643C263.158 34.3023 262.394 33.8773 261.891 33.3894C261.387 32.9014 261.135 32.1931 261.135 31.2644C261.135 30.1469 261.576 29.289 262.457 28.6909C263.339 28.077 264.724 27.7701 266.613 27.7701C267.337 27.7701 268.084 27.8252 268.856 27.9354C269.627 28.0455 270.233 28.1715 270.674 28.3131V31.4297C270.201 31.2251 269.682 31.0755 269.115 30.9811C268.565 30.8867 268.061 30.8394 267.604 30.8394C267.101 30.8394 266.652 30.863 266.259 30.9103C265.865 30.9575 265.668 31.0913 265.668 31.3116C265.668 31.5635 265.889 31.7445 266.329 31.8547C266.786 31.9649 267.392 32.138 268.147 32.3741C268.997 32.626 269.658 32.9014 270.131 33.2005C270.619 33.4995 270.957 33.8616 271.146 34.2865C271.351 34.7115 271.453 35.2388 271.453 35.8684C271.453 37.0017 270.989 37.8832 270.06 38.5128C269.147 39.1267 267.785 39.4336 265.975 39.4336Z" fill="#7DB100"/>
<path d="M85.2507 59.678L87.1238 50.8083H93.1149L92.9359 51.7036H88.0741L87.413 54.8024H91.779L91.5861 55.6839H87.2202L86.5591 58.7965H91.4209L91.2418 59.678H85.2507ZM91.858 59.678L95.0395 56.3588L93.3179 53.1497H94.5437L95.8108 55.5875L98.1109 53.1497H99.3229L96.2791 56.3588L98.042 59.678H96.8162L95.4803 57.13L93.0838 59.678H91.858ZM98.9413 62.6529L100.952 53.1497H101.916L101.861 53.8383C102.219 53.5537 102.591 53.3471 102.977 53.2186C103.372 53.0808 103.812 53.012 104.299 53.012C105.18 53.012 105.832 53.2874 106.255 53.8383C106.686 54.3801 106.778 55.2432 106.53 56.4276C106.273 57.6029 105.837 58.4614 105.222 59.0031C104.616 59.5448 103.821 59.8157 102.839 59.8157C101.985 59.8157 101.306 59.6091 100.801 59.1959L100.071 62.6529H98.9413ZM102.729 58.9067C103.463 58.9067 104.042 58.7185 104.464 58.342C104.896 57.9564 105.208 57.3183 105.401 56.4276C105.584 55.5737 105.566 54.9448 105.346 54.5408C105.134 54.1276 104.625 53.921 103.817 53.921C103.046 53.921 102.357 54.1827 101.751 54.706L100.993 58.2594C101.177 58.4614 101.411 58.6221 101.696 58.7414C101.99 58.8516 102.334 58.9067 102.729 58.9067ZM108.888 59.8157C108.456 59.8157 108.139 59.6872 107.937 59.4301C107.735 59.1638 107.689 58.7782 107.8 58.2732L109.48 50.3952H110.609L108.956 58.1492C108.901 58.4247 108.897 58.6129 108.943 58.7139C108.998 58.8149 109.14 58.8654 109.37 58.8654C109.572 58.8654 109.783 58.8378 110.003 58.7828L109.824 59.678C109.668 59.7331 109.512 59.7698 109.356 59.7882C109.2 59.8065 109.044 59.8157 108.888 59.8157ZM114.075 59.8157C113.001 59.8157 112.253 59.5265 111.83 58.948C111.408 58.3604 111.312 57.5157 111.541 56.4138C111.78 55.3212 112.202 54.4811 112.808 53.8934C113.423 53.3058 114.328 53.012 115.522 53.012C116.605 53.012 117.358 53.3058 117.78 53.8934C118.212 54.4811 118.308 55.3212 118.069 56.4138C117.84 57.5157 117.418 58.3604 116.802 58.948C116.187 59.5265 115.278 59.8157 114.075 59.8157ZM114.282 58.8516C115.062 58.8516 115.655 58.6588 116.059 58.2732C116.472 57.8783 116.766 57.2586 116.94 56.4138C117.124 55.5416 117.105 54.9172 116.885 54.5408C116.665 54.1643 116.141 53.9761 115.315 53.9761C114.544 53.9761 113.956 54.1735 113.552 54.5683C113.148 54.9539 112.854 55.5691 112.671 56.4138C112.487 57.2953 112.505 57.9243 112.726 58.3007C112.946 58.668 113.465 58.8516 114.282 58.8516ZM119.05 59.678L120.428 53.1497H121.447L121.35 53.9761C121.727 53.7649 122.149 53.5721 122.617 53.3976C123.086 53.2232 123.54 53.0946 123.981 53.012L123.802 53.8934C123.526 53.9485 123.228 54.0266 122.907 54.1276C122.585 54.2194 122.273 54.325 121.97 54.4443C121.676 54.5637 121.424 54.6877 121.213 54.8162L120.18 59.678H119.05ZM126.018 51.6209L126.239 50.588H127.492L127.271 51.6209H126.018ZM124.421 59.678L125.605 54.0449H124.6L124.903 53.1497H126.927L125.55 59.678H124.421ZM127.51 59.678L128.888 53.1497H129.907L129.824 53.8934C130.191 53.6363 130.6 53.4252 131.05 53.2599C131.5 53.0946 131.996 53.012 132.537 53.012C134.117 53.012 134.736 53.8108 134.397 55.4084L133.501 59.678H132.372L133.267 55.4498C133.387 54.8805 133.359 54.4857 133.185 54.2653C133.019 54.0358 132.611 53.921 131.959 53.921C131.582 53.921 131.183 53.9944 130.761 54.1413C130.348 54.2883 129.989 54.4903 129.686 54.7473L128.64 59.678H127.51ZM137.519 62.102C137.372 62.102 137.193 62.0928 136.981 62.0744C136.77 62.0653 136.568 62.0515 136.375 62.0331C136.183 62.0148 136.026 61.9918 135.907 61.9643L136.114 61.0002C136.297 61.0644 136.531 61.1058 136.816 61.1241C137.11 61.1517 137.349 61.1654 137.532 61.1654C138.212 61.1654 138.781 61.0507 139.24 60.8211C139.699 60.6008 139.984 60.2289 140.094 59.7055L140.232 59.0582C139.543 59.4714 138.776 59.678 137.932 59.678C137.362 59.678 136.876 59.5678 136.472 59.3474C136.068 59.1179 135.792 58.7598 135.645 58.2732C135.499 57.7773 135.508 57.1392 135.673 56.3588C135.921 55.1743 136.348 54.3204 136.954 53.797C137.56 53.2737 138.349 53.012 139.323 53.012C139.809 53.012 140.218 53.0808 140.549 53.2186C140.888 53.3471 141.182 53.5537 141.43 53.8383L141.65 53.1497H142.614L141.251 59.554C141.076 60.362 140.672 60.9864 140.039 61.4271C139.415 61.877 138.574 62.102 137.519 62.102ZM138.428 58.769C138.822 58.769 139.185 58.7139 139.516 58.6037C139.855 58.4843 140.163 58.3237 140.438 58.1217L141.155 54.706C140.971 54.4398 140.728 54.2423 140.425 54.1138C140.131 53.9853 139.796 53.921 139.419 53.921C138.657 53.921 138.074 54.1138 137.67 54.4994C137.275 54.8851 136.986 55.5048 136.802 56.3588C136.61 57.2494 136.637 57.8738 136.885 58.2318C137.142 58.5899 137.656 58.769 138.428 58.769ZM146.26 59.678L148.133 50.8083H149.262L148.422 54.8024H153.105L153.945 50.8083H155.074L153.201 59.678H152.072L152.912 55.6839H148.229L147.389 59.678H146.26ZM158.304 59.8157C157.175 59.8157 156.371 59.5357 155.894 58.9756C155.417 58.4155 155.302 57.5524 155.55 56.3863C155.779 55.3396 156.197 54.5178 156.803 53.921C157.418 53.315 158.281 53.012 159.392 53.012C160.035 53.012 160.54 53.1313 160.907 53.3701C161.284 53.5996 161.532 53.921 161.651 54.3342C161.77 54.7382 161.775 55.1973 161.665 55.7114L161.403 56.9372H156.569C156.505 57.433 156.518 57.8233 156.61 58.1079C156.711 58.3925 156.927 58.5991 157.258 58.7277C157.597 58.847 158.084 58.9067 158.717 58.9067C159.388 58.9067 160.03 58.7919 160.646 58.5624L160.453 59.4438C160.141 59.5632 159.801 59.655 159.434 59.7193C159.066 59.7836 158.69 59.8157 158.304 59.8157ZM156.734 56.1246H160.563L160.687 55.5875C160.797 55.0549 160.756 54.6463 160.563 54.3617C160.37 54.0679 159.925 53.921 159.227 53.921C158.483 53.921 157.919 54.1046 157.533 54.4719C157.157 54.8392 156.89 55.3901 156.734 56.1246ZM164.909 59.8157C163.991 59.8157 163.325 59.5632 162.912 59.0582C162.508 58.5532 162.42 57.736 162.65 56.6067C162.815 55.817 163.086 55.1559 163.463 54.6234C163.839 54.0908 164.289 53.6914 164.812 53.4252C165.336 53.1497 165.891 53.012 166.479 53.012C166.901 53.012 167.264 53.0625 167.567 53.1635C167.87 53.2645 168.154 53.4206 168.421 53.6318L168.517 53.1497H169.647L168.269 59.678H167.305L167.36 58.9893C166.993 59.274 166.612 59.4852 166.217 59.6229C165.831 59.7514 165.395 59.8157 164.909 59.8157ZM165.391 58.9067C165.767 58.9067 166.13 58.8424 166.479 58.7139C166.828 58.5853 167.158 58.3879 167.47 58.1217L168.214 54.5683C168.04 54.3663 167.824 54.2102 167.567 54.1C167.31 53.9807 166.984 53.921 166.589 53.921C165.827 53.921 165.212 54.1459 164.743 54.5958C164.284 55.0458 163.963 55.716 163.779 56.6067C163.605 57.4606 163.628 58.0574 163.848 58.3971C164.078 58.7368 164.592 58.9067 165.391 58.9067ZM171.497 59.8157C171.065 59.8157 170.749 59.6872 170.547 59.4301C170.345 59.1638 170.299 58.7782 170.409 58.2732L172.089 50.3952H173.219L171.566 58.1492C171.511 58.4247 171.506 58.6129 171.552 58.7139C171.607 58.8149 171.75 58.8654 171.979 58.8654C172.181 58.8654 172.392 58.8378 172.613 58.7828L172.434 59.678C172.277 59.7331 172.121 59.7698 171.965 59.7882C171.809 59.8065 171.653 59.8157 171.497 59.8157ZM175.743 59.8157C175.137 59.8157 174.701 59.6458 174.434 59.3061C174.168 58.9572 174.099 58.4752 174.228 57.86L175.027 54.0449H174.035L174.228 53.1497H175.22L175.564 51.5383L176.762 51.194L176.349 53.1497H178.153L177.891 54.0449H176.156L175.357 57.8049C175.275 58.1997 175.293 58.4843 175.412 58.6588C175.541 58.8241 175.807 58.9067 176.211 58.9067C176.34 58.9067 176.487 58.8975 176.652 58.8792C176.817 58.8516 176.982 58.8149 177.148 58.769L176.955 59.6229C176.588 59.7514 176.184 59.8157 175.743 59.8157ZM178.257 59.678L180.226 50.3952H181.355L180.612 53.8521C180.97 53.6042 181.369 53.4022 181.81 53.2461C182.251 53.09 182.742 53.012 183.284 53.012C184.037 53.012 184.574 53.214 184.895 53.618C185.226 54.022 185.308 54.6188 185.143 55.4084L184.248 59.678H183.118L184.014 55.4498C184.133 54.8805 184.101 54.4857 183.917 54.2653C183.734 54.0358 183.33 53.921 182.705 53.921C182.338 53.921 181.943 54.0036 181.521 54.1689C181.098 54.325 180.731 54.5316 180.419 54.7887L179.386 59.678H178.257ZM185.574 61.3307L186.483 58.8929H187.502L186.401 61.3307H185.574ZM188.909 59.678L190.782 50.8083H196.594L196.415 51.7036H191.733L191.072 54.8024H195.245L195.052 55.6839H190.879L190.039 59.678H188.909ZM197.496 59.8157C197.064 59.8157 196.747 59.6872 196.545 59.4301C196.343 59.1638 196.297 58.7782 196.408 58.2732L198.088 50.3952H199.217L197.565 58.1492C197.509 58.4247 197.505 58.6129 197.551 58.7139C197.606 58.8149 197.748 58.8654 197.978 58.8654C198.18 58.8654 198.391 58.8378 198.611 58.7828L198.432 59.678C198.276 59.7331 198.12 59.7698 197.964 59.7882C197.808 59.8065 197.652 59.8157 197.496 59.8157ZM202.367 59.8157C201.449 59.8157 200.783 59.5632 200.37 59.0582C199.966 58.5532 199.878 57.736 200.108 56.6067C200.273 55.817 200.544 55.1559 200.921 54.6234C201.297 54.0908 201.747 53.6914 202.27 53.4252C202.794 53.1497 203.349 53.012 203.937 53.012C204.359 53.012 204.722 53.0625 205.025 53.1635C205.328 53.2645 205.613 53.4206 205.879 53.6318L205.975 53.1497H207.105L205.727 59.678H204.763L204.818 58.9893C204.451 59.274 204.07 59.4852 203.675 59.6229C203.29 59.7514 202.853 59.8157 202.367 59.8157ZM202.849 58.9067C203.225 58.9067 203.588 58.8424 203.937 58.7139C204.286 58.5853 204.616 58.3879 204.928 58.1217L205.672 54.5683C205.498 54.3663 205.282 54.2102 205.025 54.1C204.768 53.9807 204.442 53.921 204.047 53.921C203.285 53.921 202.67 54.1459 202.201 54.5958C201.742 55.0458 201.421 55.716 201.237 56.6067C201.063 57.4606 201.086 58.0574 201.306 58.3971C201.536 58.7368 202.05 58.9067 202.849 58.9067ZM209.514 59.678L208.33 53.1497H209.459L210.327 58.6313L213.508 53.1497H214.72L210.781 59.678H209.514ZM217.183 59.8157C216.108 59.8157 215.36 59.5265 214.938 58.948C214.515 58.3604 214.419 57.5157 214.648 56.4138C214.887 55.3212 215.309 54.4811 215.915 53.8934C216.531 53.3058 217.435 53.012 218.629 53.012C219.712 53.012 220.465 53.3058 220.887 53.8934C221.319 54.4811 221.415 55.3212 221.177 56.4138C220.947 57.5157 220.525 58.3604 219.91 58.948C219.294 59.5265 218.385 59.8157 217.183 59.8157ZM217.389 58.8516C218.17 58.8516 218.762 58.6588 219.166 58.2732C219.579 57.8783 219.873 57.2586 220.047 56.4138C220.231 55.5416 220.213 54.9172 219.992 54.5408C219.772 54.1643 219.248 53.9761 218.422 53.9761C217.651 53.9761 217.063 54.1735 216.659 54.5683C216.255 54.9539 215.961 55.5691 215.778 56.4138C215.594 57.2953 215.612 57.9243 215.833 58.3007C216.053 58.668 216.572 58.8516 217.389 58.8516ZM224.416 59.8157C223.691 59.8157 223.158 59.5999 222.819 59.1684C222.488 58.7368 222.41 58.1079 222.584 57.2815L223.466 53.1497H224.595L223.714 57.3228C223.594 57.9105 223.631 58.3237 223.824 58.5624C224.017 58.7919 224.421 58.9067 225.036 58.9067C225.44 58.9067 225.835 58.8333 226.22 58.6863C226.606 58.5303 226.96 58.3283 227.281 58.0803L228.328 53.1497H229.457L228.08 59.678H227.061L227.143 58.9343C226.776 59.1822 226.372 59.3933 225.931 59.5678C225.491 59.7331 224.986 59.8157 224.416 59.8157ZM230.026 59.678L231.403 53.1497H232.422L232.326 53.9761C232.702 53.7649 233.125 53.5721 233.593 53.3976C234.061 53.2232 234.516 53.0946 234.956 53.012L234.777 53.8934C234.502 53.9485 234.203 54.0266 233.882 54.1276C233.561 54.2194 233.249 54.325 232.946 54.4443C232.652 54.5637 232.399 54.6877 232.188 54.8162L231.155 59.678H230.026ZM232.945 61.3307L233.854 58.8929H234.873L233.771 61.3307H232.945ZM242.071 59.8157C241.153 59.8157 240.487 59.5632 240.074 59.0582C239.67 58.5532 239.583 57.736 239.812 56.6067C239.977 55.817 240.248 55.1559 240.625 54.6234C241.001 54.0908 241.451 53.6914 241.975 53.4252C242.498 53.1497 243.053 53.012 243.641 53.012C244.063 53.012 244.426 53.0625 244.729 53.1635C245.032 53.2645 245.317 53.4206 245.583 53.6318L245.679 53.1497H246.809L245.431 59.678H244.467L244.522 58.9893C244.155 59.274 243.774 59.4852 243.379 59.6229C242.994 59.7514 242.558 59.8157 242.071 59.8157ZM242.553 58.9067C242.929 58.9067 243.292 58.8424 243.641 58.7139C243.99 58.5853 244.32 58.3879 244.633 58.1217L245.376 54.5683C245.202 54.3663 244.986 54.2102 244.729 54.1C244.472 53.9807 244.146 53.921 243.751 53.921C242.989 53.921 242.374 54.1459 241.906 54.5958C241.447 55.0458 241.125 55.716 240.942 56.6067C240.767 57.4606 240.79 58.0574 241.01 58.3971C241.24 58.7368 241.754 58.9067 242.553 58.9067ZM247.282 59.678L248.659 53.1497H249.678L249.596 53.8934C249.963 53.6363 250.372 53.4252 250.822 53.2599C251.271 53.0946 251.767 53.012 252.309 53.012C253.888 53.012 254.508 53.8108 254.168 55.4084L253.273 59.678H252.144L253.039 55.4498C253.158 54.8805 253.131 54.4857 252.956 54.2653C252.791 54.0358 252.382 53.921 251.731 53.921C251.354 53.921 250.955 53.9944 250.532 54.1413C250.119 54.2883 249.761 54.4903 249.458 54.7473L248.411 59.678H247.282ZM257.552 59.8157C256.973 59.8157 256.487 59.7009 256.092 59.4714C255.697 59.2327 255.431 58.8654 255.293 58.3696C255.155 57.8646 255.169 57.2173 255.334 56.4276C255.582 55.2523 256.028 54.3893 256.67 53.8383C257.313 53.2874 258.094 53.012 259.012 53.012C259.856 53.012 260.54 53.2186 261.064 53.6318L261.752 50.3952H262.882L260.912 59.678H259.948L260.003 58.9893C259.636 59.274 259.255 59.4852 258.86 59.6229C258.475 59.7514 258.038 59.8157 257.552 59.8157ZM258.034 58.9067C258.41 58.9067 258.773 58.8424 259.122 58.7139C259.471 58.5853 259.801 58.3879 260.114 58.1217L260.857 54.5683C260.683 54.3663 260.449 54.2102 260.155 54.1C259.861 53.9807 259.517 53.921 259.122 53.921C258.424 53.921 257.85 54.1184 257.4 54.5132C256.96 54.8988 256.647 55.537 256.464 56.4276C256.28 57.2815 256.298 57.9105 256.519 58.3145C256.739 58.7093 257.244 58.9067 258.034 58.9067ZM267.298 59.8157C266.931 59.8157 266.596 59.7836 266.293 59.7193C265.99 59.6642 265.728 59.5908 265.508 59.4989L265.714 58.5348C265.916 58.6267 266.164 58.7047 266.458 58.769C266.761 58.8333 267.064 58.8654 267.367 58.8654C268.019 58.8654 268.496 58.7277 268.799 58.4522C269.112 58.1768 269.327 57.7452 269.447 57.1576L270.797 50.8083H271.926L270.562 57.2402C270.388 58.0482 270.044 58.6818 269.529 59.1408C269.024 59.5908 268.281 59.8157 267.298 59.8157ZM274.842 59.8157C273.768 59.8157 273.02 59.5265 272.597 58.948C272.175 58.3604 272.079 57.5157 272.308 56.4138C272.547 55.3212 272.969 54.4811 273.575 53.8934C274.19 53.3058 275.095 53.012 276.289 53.012C277.372 53.012 278.125 53.3058 278.547 53.8934C278.979 54.4811 279.075 55.3212 278.836 56.4138C278.607 57.5157 278.185 58.3604 277.569 58.948C276.954 59.5265 276.045 59.8157 274.842 59.8157ZM275.049 58.8516C275.829 58.8516 276.422 58.6588 276.826 58.2732C277.239 57.8783 277.533 57.2586 277.707 56.4138C277.891 55.5416 277.872 54.9172 277.652 54.5408C277.432 54.1643 276.908 53.9761 276.082 53.9761C275.311 53.9761 274.723 54.1735 274.319 54.5683C273.915 54.9539 273.621 55.5691 273.438 56.4138C273.254 57.2953 273.272 57.9243 273.493 58.3007C273.713 58.668 274.232 58.8516 275.049 58.8516ZM281.828 62.102C281.681 62.102 281.502 62.0928 281.291 62.0744C281.08 62.0653 280.878 62.0515 280.685 62.0331C280.492 62.0148 280.336 61.9918 280.217 61.9643L280.423 61.0002C280.607 61.0644 280.841 61.1058 281.126 61.1241C281.42 61.1517 281.658 61.1654 281.842 61.1654C282.604 61.1654 283.242 61.0598 283.756 60.8487C284.28 60.6375 284.601 60.2564 284.72 59.7055L284.886 58.9343C284.518 59.1913 284.101 59.4025 283.632 59.5678C283.164 59.7331 282.673 59.8157 282.159 59.8157C281.433 59.8157 280.901 59.5953 280.561 59.1546C280.231 58.7139 280.152 58.0895 280.327 57.2815L281.208 53.1497H282.338L281.456 57.3228C281.337 57.9105 281.374 58.3237 281.566 58.5624C281.768 58.7919 282.172 58.9067 282.778 58.9067C283.182 58.9067 283.577 58.8333 283.963 58.6863C284.358 58.5394 284.711 58.3374 285.023 58.0803L286.07 53.1497H287.2L285.836 59.554C285.652 60.4447 285.225 61.092 284.555 61.496C283.885 61.9 282.976 62.102 281.828 62.102ZM288.246 57.557L289.141 52.9707L289.596 50.8083H290.725L290.271 52.9707L289.21 57.557H288.246ZM287.668 59.678L287.847 58.7828H289.086L288.907 59.678H287.668Z" fill="#232323"/>
</svg>
